<mxfile host="Electron" agent="Mozilla/5.0 (Macintosh; Intel Mac OS X 10_15_7) AppleWebKit/537.36 (KHTML, like Gecko) draw.io/26.0.9 Chrome/128.0.6613.186 Electron/32.2.5 Safari/537.36" version="26.0.9">
  <diagram name="Page-1" id="hiAjeMte9vQZYx8w2yzX">
    <mxGraphModel dx="2585" dy="1322" grid="1" gridSize="10" guides="1" tooltips="1" connect="1" arrows="1" fold="1" page="1" pageScale="1" pageWidth="850" pageHeight="1100" math="0" shadow="0">
      <root>
        <mxCell id="0" />
        <mxCell id="1" parent="0" />
        <mxCell id="DVuVuWAYcXVsBYYZ7FBh-2" value="&lt;font style=&quot;font-size: 24px;&quot;&gt;Integration Model&lt;/font&gt; - how tables are related to each other&amp;nbsp;" style="text;html=1;align=center;verticalAlign=middle;whiteSpace=wrap;rounded=0;" vertex="1" parent="1">
          <mxGeometry x="-850" y="20" width="460" height="30" as="geometry" />
        </mxCell>
        <mxCell id="DVuVuWAYcXVsBYYZ7FBh-4" value="crm_cust_info" style="swimlane;fontStyle=0;childLayout=stackLayout;horizontal=1;startSize=30;horizontalStack=0;resizeParent=1;resizeParentMax=0;resizeLast=0;collapsible=1;marginBottom=0;whiteSpace=wrap;html=1;fillColor=#dae8fc;strokeColor=#6c8ebf;fontSize=26;rounded=1;" vertex="1" parent="1">
          <mxGeometry x="-350" y="170" width="270" height="143" as="geometry" />
        </mxCell>
        <mxCell id="DVuVuWAYcXVsBYYZ7FBh-5" value="cst_id" style="text;strokeColor=none;fillColor=none;align=left;verticalAlign=middle;spacingLeft=4;spacingRight=4;overflow=hidden;points=[[0,0.5],[1,0.5]];portConstraint=eastwest;rotatable=0;whiteSpace=wrap;html=1;fontSize=26;rounded=1;" vertex="1" parent="DVuVuWAYcXVsBYYZ7FBh-4">
          <mxGeometry y="30" width="270" height="40" as="geometry" />
        </mxCell>
        <mxCell id="DVuVuWAYcXVsBYYZ7FBh-25" value="cst_key" style="text;strokeColor=none;fillColor=none;align=left;verticalAlign=middle;spacingLeft=4;spacingRight=4;overflow=hidden;points=[[0,0.5],[1,0.5]];portConstraint=eastwest;rotatable=0;whiteSpace=wrap;html=1;fontSize=26;rounded=1;" vertex="1" parent="DVuVuWAYcXVsBYYZ7FBh-4">
          <mxGeometry y="70" width="270" height="40" as="geometry" />
        </mxCell>
        <mxCell id="DVuVuWAYcXVsBYYZ7FBh-58" value="&lt;b&gt;&lt;font style=&quot;font-size: 20px;&quot;&gt;Customer&lt;/font&gt;&lt;/b&gt;" style="rounded=1;align=center;fillColor=#d5e8d4;strokeColor=#82b366;html=1;whiteSpace=wrap;fontSize=12" vertex="1" parent="DVuVuWAYcXVsBYYZ7FBh-4">
          <mxGeometry y="110" width="270" height="33" as="geometry" />
        </mxCell>
        <mxCell id="DVuVuWAYcXVsBYYZ7FBh-9" value="&lt;font style=&quot;font-size: 20px;&quot;&gt;Customer Information&lt;/font&gt;" style="text;html=1;align=center;verticalAlign=middle;whiteSpace=wrap;rounded=0;" vertex="1" parent="1">
          <mxGeometry x="-330" y="140" width="230" height="30" as="geometry" />
        </mxCell>
        <mxCell id="DVuVuWAYcXVsBYYZ7FBh-10" value="crm_prd_info" style="swimlane;fontStyle=0;childLayout=stackLayout;horizontal=1;startSize=30;horizontalStack=0;resizeParent=1;resizeParentMax=0;resizeLast=0;collapsible=1;marginBottom=0;whiteSpace=wrap;html=1;fillColor=#dae8fc;strokeColor=#6c8ebf;fontSize=26;rounded=1;" vertex="1" parent="1">
          <mxGeometry x="-350" y="550" width="270" height="103" as="geometry" />
        </mxCell>
        <mxCell id="DVuVuWAYcXVsBYYZ7FBh-11" value="prd_key" style="text;strokeColor=none;fillColor=none;align=left;verticalAlign=middle;spacingLeft=4;spacingRight=4;overflow=hidden;points=[[0,0.5],[1,0.5]];portConstraint=eastwest;rotatable=0;whiteSpace=wrap;html=1;fontSize=26;rounded=1;" vertex="1" parent="DVuVuWAYcXVsBYYZ7FBh-10">
          <mxGeometry y="30" width="270" height="40" as="geometry" />
        </mxCell>
        <mxCell id="DVuVuWAYcXVsBYYZ7FBh-63" value="&lt;b&gt;&lt;font style=&quot;font-size: 20px;&quot;&gt;Product&lt;/font&gt;&lt;/b&gt;" style="rounded=1;align=center;fillColor=#f8cecc;strokeColor=#b85450;html=1;whiteSpace=wrap;fontSize=12" vertex="1" parent="DVuVuWAYcXVsBYYZ7FBh-10">
          <mxGeometry y="70" width="270" height="33" as="geometry" />
        </mxCell>
        <mxCell id="DVuVuWAYcXVsBYYZ7FBh-12" value="crm_sales_details" style="swimlane;fontStyle=0;childLayout=stackLayout;horizontal=1;startSize=30;horizontalStack=0;resizeParent=1;resizeParentMax=0;resizeLast=0;collapsible=1;marginBottom=0;whiteSpace=wrap;html=1;fillColor=#dae8fc;strokeColor=#6c8ebf;fontSize=26;rounded=1;" vertex="1" parent="1">
          <mxGeometry x="-802.5" y="365" width="270" height="150" as="geometry" />
        </mxCell>
        <mxCell id="DVuVuWAYcXVsBYYZ7FBh-13" value="cst_id" style="text;strokeColor=none;fillColor=none;align=left;verticalAlign=middle;spacingLeft=4;spacingRight=4;overflow=hidden;points=[[0,0.5],[1,0.5]];portConstraint=eastwest;rotatable=0;whiteSpace=wrap;html=1;fontSize=26;rounded=1;" vertex="1" parent="DVuVuWAYcXVsBYYZ7FBh-12">
          <mxGeometry y="30" width="270" height="40" as="geometry" />
        </mxCell>
        <mxCell id="DVuVuWAYcXVsBYYZ7FBh-15" value="prd_key" style="text;strokeColor=none;fillColor=none;align=left;verticalAlign=middle;spacingLeft=4;spacingRight=4;overflow=hidden;points=[[0,0.5],[1,0.5]];portConstraint=eastwest;rotatable=0;whiteSpace=wrap;html=1;fontSize=26;rounded=1;" vertex="1" parent="DVuVuWAYcXVsBYYZ7FBh-12">
          <mxGeometry y="70" width="270" height="40" as="geometry" />
        </mxCell>
        <mxCell id="DVuVuWAYcXVsBYYZ7FBh-65" value="&lt;font style=&quot;font-size: 24px;&quot;&gt;&lt;b style=&quot;&quot;&gt;Sales&lt;/b&gt;&lt;/font&gt;" style="text;html=1;strokeColor=#9673a6;fillColor=#e1d5e7;align=center;verticalAlign=middle;whiteSpace=wrap;overflow=hidden;" vertex="1" parent="DVuVuWAYcXVsBYYZ7FBh-12">
          <mxGeometry y="110" width="270" height="40" as="geometry" />
        </mxCell>
        <mxCell id="DVuVuWAYcXVsBYYZ7FBh-16" value="&lt;div style=&quot;text-align: center;&quot;&gt;&lt;span style=&quot;background-color: transparent; color: light-dark(rgb(0, 0, 0), rgb(255, 255, 255)); font-size: 20px;&quot;&gt;Current &amp;amp; History Product&amp;nbsp; information&lt;/span&gt;&lt;/div&gt;" style="text;whiteSpace=wrap;html=1;" vertex="1" parent="1">
          <mxGeometry x="-390" y="510" width="400" height="50" as="geometry" />
        </mxCell>
        <mxCell id="DVuVuWAYcXVsBYYZ7FBh-17" value="&lt;div style=&quot;text-align: center;&quot;&gt;&lt;span style=&quot;background-color: transparent; color: light-dark(rgb(0, 0, 0), rgb(255, 255, 255)); font-size: 20px;&quot;&gt;Transactional Records about Sales &amp;amp; Orders&lt;/span&gt;&lt;/div&gt;" style="text;whiteSpace=wrap;html=1;" vertex="1" parent="1">
          <mxGeometry x="-790" y="270" width="285" height="80" as="geometry" />
        </mxCell>
        <mxCell id="DVuVuWAYcXVsBYYZ7FBh-21" value="&lt;div style=&quot;color: rgb(33, 33, 33); font-family: Menlo, Monaco, &amp;quot;Courier New&amp;quot;, monospace; line-height: 18px; white-space: pre;&quot;&gt;&lt;span&gt;&lt;font&gt;erp_cust_az12&lt;/font&gt;&lt;/span&gt;&lt;/div&gt;" style="swimlane;fontStyle=0;childLayout=stackLayout;horizontal=1;startSize=30;horizontalStack=0;resizeParent=1;resizeParentMax=0;resizeLast=0;collapsible=1;marginBottom=0;whiteSpace=wrap;html=1;fillColor=#fff2cc;strokeColor=#d6b656;fontSize=26;rounded=1;" vertex="1" parent="1">
          <mxGeometry x="250" y="365" width="270" height="103" as="geometry" />
        </mxCell>
        <mxCell id="DVuVuWAYcXVsBYYZ7FBh-22" value="c_id" style="text;strokeColor=none;fillColor=none;align=left;verticalAlign=middle;spacingLeft=4;spacingRight=4;overflow=hidden;points=[[0,0.5],[1,0.5]];portConstraint=eastwest;rotatable=0;whiteSpace=wrap;html=1;fontSize=26;rounded=1;" vertex="1" parent="DVuVuWAYcXVsBYYZ7FBh-21">
          <mxGeometry y="30" width="270" height="40" as="geometry" />
        </mxCell>
        <mxCell id="DVuVuWAYcXVsBYYZ7FBh-62" value="&lt;b&gt;&lt;font style=&quot;font-size: 20px;&quot;&gt;Customer&lt;/font&gt;&lt;/b&gt;" style="rounded=1;align=center;fillColor=#d5e8d4;strokeColor=#82b366;html=1;whiteSpace=wrap;fontSize=12" vertex="1" parent="DVuVuWAYcXVsBYYZ7FBh-21">
          <mxGeometry y="70" width="270" height="33" as="geometry" />
        </mxCell>
        <mxCell id="DVuVuWAYcXVsBYYZ7FBh-24" value="&lt;div style=&quot;text-align: center;&quot;&gt;&lt;span style=&quot;background-color: transparent; color: light-dark(rgb(0, 0, 0), rgb(255, 255, 255)); font-size: 20px;&quot;&gt;&amp;nbsp;Customer Info(Bdate)&lt;/span&gt;&lt;/div&gt;&lt;div style=&quot;text-align: center;&quot;&gt;&lt;span style=&quot;background-color: transparent; color: light-dark(rgb(0, 0, 0), rgb(255, 255, 255)); font-size: 20px;&quot;&gt;&lt;br&gt;&lt;/span&gt;&lt;/div&gt;" style="text;whiteSpace=wrap;html=1;" vertex="1" parent="1">
          <mxGeometry x="280" y="320" width="210" height="40" as="geometry" />
        </mxCell>
        <mxCell id="DVuVuWAYcXVsBYYZ7FBh-27" style="edgeStyle=orthogonalEdgeStyle;rounded=0;orthogonalLoop=1;jettySize=auto;html=1;exitX=0;exitY=0.5;exitDx=0;exitDy=0;" edge="1" parent="1" source="DVuVuWAYcXVsBYYZ7FBh-22" target="DVuVuWAYcXVsBYYZ7FBh-25">
          <mxGeometry relative="1" as="geometry" />
        </mxCell>
        <mxCell id="DVuVuWAYcXVsBYYZ7FBh-28" style="edgeStyle=orthogonalEdgeStyle;rounded=0;orthogonalLoop=1;jettySize=auto;html=1;entryX=0;entryY=0.5;entryDx=0;entryDy=0;" edge="1" parent="1" source="DVuVuWAYcXVsBYYZ7FBh-13" target="DVuVuWAYcXVsBYYZ7FBh-5">
          <mxGeometry relative="1" as="geometry" />
        </mxCell>
        <mxCell id="DVuVuWAYcXVsBYYZ7FBh-29" style="edgeStyle=orthogonalEdgeStyle;rounded=0;orthogonalLoop=1;jettySize=auto;html=1;entryX=0;entryY=0.5;entryDx=0;entryDy=0;" edge="1" parent="1" source="DVuVuWAYcXVsBYYZ7FBh-15" target="DVuVuWAYcXVsBYYZ7FBh-11">
          <mxGeometry relative="1" as="geometry" />
        </mxCell>
        <mxCell id="DVuVuWAYcXVsBYYZ7FBh-30" style="edgeStyle=orthogonalEdgeStyle;rounded=0;orthogonalLoop=1;jettySize=auto;html=1;" edge="1" parent="1" source="DVuVuWAYcXVsBYYZ7FBh-15" target="DVuVuWAYcXVsBYYZ7FBh-11">
          <mxGeometry relative="1" as="geometry" />
        </mxCell>
        <mxCell id="DVuVuWAYcXVsBYYZ7FBh-31" style="edgeStyle=orthogonalEdgeStyle;rounded=0;orthogonalLoop=1;jettySize=auto;html=1;" edge="1" parent="1" source="DVuVuWAYcXVsBYYZ7FBh-13" target="DVuVuWAYcXVsBYYZ7FBh-5">
          <mxGeometry relative="1" as="geometry" />
        </mxCell>
        <mxCell id="DVuVuWAYcXVsBYYZ7FBh-35" value="&lt;div style=&quot;color: rgb(33, 33, 33); font-family: Menlo, Monaco, &amp;quot;Courier New&amp;quot;, monospace; line-height: 18px; white-space: pre;&quot;&gt;&lt;span&gt;&lt;font&gt;erp_loc_a101&lt;/font&gt;&lt;/span&gt;&lt;/div&gt;" style="swimlane;fontStyle=0;childLayout=stackLayout;horizontal=1;startSize=30;horizontalStack=0;resizeParent=1;resizeParentMax=0;resizeLast=0;collapsible=1;marginBottom=0;whiteSpace=wrap;html=1;fillColor=#fff2cc;strokeColor=#d6b656;fontSize=26;rounded=1;arcSize=0;" vertex="1" parent="1">
          <mxGeometry x="250" y="190" width="270" height="103" as="geometry" />
        </mxCell>
        <mxCell id="DVuVuWAYcXVsBYYZ7FBh-36" value="c_id" style="text;strokeColor=none;fillColor=none;align=left;verticalAlign=middle;spacingLeft=4;spacingRight=4;overflow=hidden;points=[[0,0.5],[1,0.5]];portConstraint=eastwest;rotatable=0;whiteSpace=wrap;html=1;fontSize=26;rounded=1;" vertex="1" parent="DVuVuWAYcXVsBYYZ7FBh-35">
          <mxGeometry y="30" width="270" height="40" as="geometry" />
        </mxCell>
        <mxCell id="DVuVuWAYcXVsBYYZ7FBh-61" value="&lt;b&gt;&lt;font style=&quot;font-size: 20px;&quot;&gt;Customer&lt;/font&gt;&lt;/b&gt;" style="rounded=1;align=center;fillColor=#d5e8d4;strokeColor=#82b366;html=1;whiteSpace=wrap;fontSize=12" vertex="1" parent="DVuVuWAYcXVsBYYZ7FBh-35">
          <mxGeometry y="70" width="270" height="33" as="geometry" />
        </mxCell>
        <mxCell id="DVuVuWAYcXVsBYYZ7FBh-37" value="&lt;div style=&quot;text-align: center;&quot;&gt;&lt;span style=&quot;font-size: 20px;&quot;&gt;Customer Info(Country)&lt;/span&gt;&lt;/div&gt;" style="text;whiteSpace=wrap;html=1;" vertex="1" parent="1">
          <mxGeometry x="280" y="150" width="230" height="40" as="geometry" />
        </mxCell>
        <mxCell id="DVuVuWAYcXVsBYYZ7FBh-40" value="&lt;div style=&quot;color: rgb(33, 33, 33); font-family: Menlo, Monaco, &amp;quot;Courier New&amp;quot;, monospace; line-height: 18px; white-space: pre;&quot;&gt;&lt;div style=&quot;line-height: 18px;&quot;&gt;&lt;span&gt;&lt;font style=&quot;font-size: 24px;&quot;&gt;erp_px_cat_g1v2&lt;/font&gt;&lt;/span&gt;&lt;/div&gt;&lt;/div&gt;" style="swimlane;fontStyle=0;childLayout=stackLayout;horizontal=1;startSize=30;horizontalStack=0;resizeParent=1;resizeParentMax=0;resizeLast=0;collapsible=1;marginBottom=0;whiteSpace=wrap;html=1;fillColor=#fff2cc;strokeColor=#d6b656;fontSize=26;rounded=1;" vertex="1" parent="1">
          <mxGeometry x="250" y="572.5" width="270" height="103" as="geometry" />
        </mxCell>
        <mxCell id="DVuVuWAYcXVsBYYZ7FBh-41" value="id" style="text;strokeColor=none;fillColor=none;align=left;verticalAlign=middle;spacingLeft=4;spacingRight=4;overflow=hidden;points=[[0,0.5],[1,0.5]];portConstraint=eastwest;rotatable=0;whiteSpace=wrap;html=1;fontSize=26;rounded=1;" vertex="1" parent="DVuVuWAYcXVsBYYZ7FBh-40">
          <mxGeometry y="30" width="270" height="40" as="geometry" />
        </mxCell>
        <mxCell id="DVuVuWAYcXVsBYYZ7FBh-64" value="&lt;b&gt;&lt;font style=&quot;font-size: 20px;&quot;&gt;Product&lt;/font&gt;&lt;/b&gt;" style="rounded=1;align=center;fillColor=#f8cecc;strokeColor=#b85450;html=1;whiteSpace=wrap;fontSize=12" vertex="1" parent="DVuVuWAYcXVsBYYZ7FBh-40">
          <mxGeometry y="70" width="270" height="33" as="geometry" />
        </mxCell>
        <mxCell id="DVuVuWAYcXVsBYYZ7FBh-42" value="&lt;div style=&quot;text-align: center;&quot;&gt;&lt;span style=&quot;font-size: 20px;&quot;&gt;Product categories&lt;/span&gt;&lt;/div&gt;" style="text;whiteSpace=wrap;html=1;" vertex="1" parent="1">
          <mxGeometry x="300" y="527.5" width="210" height="40" as="geometry" />
        </mxCell>
        <mxCell id="DVuVuWAYcXVsBYYZ7FBh-43" style="edgeStyle=orthogonalEdgeStyle;rounded=0;orthogonalLoop=1;jettySize=auto;html=1;exitX=0;exitY=0.5;exitDx=0;exitDy=0;" edge="1" parent="1" source="DVuVuWAYcXVsBYYZ7FBh-41" target="DVuVuWAYcXVsBYYZ7FBh-11">
          <mxGeometry relative="1" as="geometry" />
        </mxCell>
        <mxCell id="DVuVuWAYcXVsBYYZ7FBh-47" value="&lt;font style=&quot;font-size: 35px;&quot;&gt;&lt;b&gt;CRM&lt;/b&gt;&lt;/font&gt;" style="rounded=1;whiteSpace=wrap;html=1;fillColor=#dae8fc;strokeColor=#6c8ebf;" vertex="1" parent="1">
          <mxGeometry x="-545" y="70" width="120" height="60" as="geometry" />
        </mxCell>
        <mxCell id="DVuVuWAYcXVsBYYZ7FBh-57" value="&lt;font style=&quot;font-size: 35px;&quot;&gt;&lt;b&gt;ERP&lt;/b&gt;&lt;/font&gt;" style="rounded=1;whiteSpace=wrap;html=1;fillColor=#fff2cc;strokeColor=#d6b656;" vertex="1" parent="1">
          <mxGeometry x="360" y="80" width="120" height="60" as="geometry" />
        </mxCell>
        <mxCell id="DVuVuWAYcXVsBYYZ7FBh-60" style="edgeStyle=orthogonalEdgeStyle;rounded=0;orthogonalLoop=1;jettySize=auto;html=1;entryX=1;entryY=0.5;entryDx=0;entryDy=0;" edge="1" parent="1" source="DVuVuWAYcXVsBYYZ7FBh-36" target="DVuVuWAYcXVsBYYZ7FBh-25">
          <mxGeometry relative="1" as="geometry" />
        </mxCell>
      </root>
    </mxGraphModel>
  </diagram>
</mxfile>
